<svg width="301" height="220" viewBox="0 0 301 220" fill="none" xmlns="http://www.w3.org/2000/svg">
<path d="M39.218 131.803C39.218 147.036 42.5567 159.556 49.234 169.363C55.9113 178.962 66.8663 183.761 82.099 183.761C88.359 183.761 94.8277 182.926 101.505 181.257C108.391 179.588 116.842 176.771 126.858 172.806L138.439 205.358C127.171 210.366 116.738 213.913 107.139 216C97.749 218.087 88.672 219.13 79.908 219.13C62.38 219.13 47.669 215.374 35.775 207.862C24.0897 200.35 15.3257 190.021 9.483 176.875C3.64033 163.729 0.719 148.705 0.719 131.803V87.044C0.719 70.142 3.64033 55.118 9.483 41.972C15.3257 28.826 24.0897 18.6013 35.775 11.298C47.669 3.78598 62.38 0.0299821 79.908 0.0299821C88.4633 0.0299821 97.3317 1.07332 106.513 3.16C115.694 5.038 125.71 8.37667 136.561 13.176L124.98 46.354C115.381 42.3893 107.348 39.5723 100.879 37.903C94.4103 36.2337 88.1503 35.399 82.099 35.399C66.8663 35.399 55.9113 40.1983 49.234 49.797C42.5567 59.3957 39.218 71.8113 39.218 87.044V131.803ZM293.117 217.565C282.475 217.565 273.92 215.374 267.451 210.992C261.191 206.61 256.601 201.185 253.679 194.716C244.707 203.063 236.047 209.218 227.7 213.183C219.354 217.148 210.381 219.13 200.782 219.13C186.802 219.13 176.473 214.644 169.795 205.671C163.327 196.698 160.092 185.326 160.092 171.554C160.092 162.373 161.762 154.339 165.1 147.453C168.648 140.358 174.386 134.829 182.315 130.864C190.245 126.899 201.095 124.917 214.867 124.917C220.293 124.917 225.927 125.334 231.769 126.169C237.612 126.795 243.455 127.63 249.297 128.673V110.206C249.297 101.442 246.898 95.495 242.098 92.365C237.299 89.0263 230.83 87.357 222.692 87.357C216.432 87.357 209.546 88.1917 202.034 89.861C194.731 91.5303 186.802 94.1387 178.246 97.686L167.917 67.012C188.993 58.4567 208.086 54.179 225.196 54.179C240.638 54.179 252.532 56.7873 260.878 62.004C269.434 67.2207 275.381 74.1067 278.719 82.662C282.058 91.2173 283.727 100.399 283.727 110.206V171.241C283.727 174.371 284.562 177.397 286.231 180.318C288.109 183.031 291.657 184.387 296.873 184.387H300.316V217.565H293.117ZM194.835 170.928C194.835 176.562 196.087 181.048 198.591 184.387C201.095 187.517 204.747 189.082 209.546 189.082C214.346 189.082 219.771 187.83 225.822 185.326C231.874 182.822 239.699 176.979 249.297 167.798V154.339C238.447 152.461 227.805 151.522 217.371 151.522C209.233 151.522 203.391 153.191 199.843 156.53C196.505 159.869 194.835 164.668 194.835 170.928Z" fill="#0165E1"/>
</svg>
