<svg width="455" height="455" viewBox="0 0 455 455" fill="none" xmlns="http://www.w3.org/2000/svg">
<g clip-path="url(#clip0_1_2)">
<rect width="455" height="455" rx="142" fill="#F7F7F7"/>
<path d="M119.218 249.803C119.218 265.036 122.557 277.556 129.234 287.363C135.911 296.962 146.866 301.761 162.099 301.761C168.359 301.761 174.828 300.926 181.505 299.257C188.391 297.588 196.842 294.771 206.858 290.806L218.439 323.358C207.171 328.366 196.738 331.913 187.139 334C177.749 336.087 168.672 337.13 159.908 337.13C142.38 337.13 127.669 333.374 115.775 325.862C104.09 318.35 95.3257 308.021 89.483 294.875C83.6403 281.729 80.719 266.705 80.719 249.803V205.044C80.719 188.142 83.6403 173.118 89.483 159.972C95.3257 146.826 104.09 136.601 115.775 129.298C127.669 121.786 142.38 118.03 159.908 118.03C168.463 118.03 177.332 119.073 186.513 121.16C195.694 123.038 205.71 126.377 216.561 131.176L204.98 164.354C195.381 160.389 187.348 157.572 180.879 155.903C174.41 154.234 168.15 153.399 162.099 153.399C146.866 153.399 135.911 158.198 129.234 167.797C122.557 177.396 119.218 189.811 119.218 205.044V249.803ZM373.117 335.565C362.475 335.565 353.92 333.374 347.451 328.992C341.191 324.61 336.601 319.185 333.679 312.716C324.707 321.063 316.047 327.218 307.7 331.183C299.354 335.148 290.381 337.13 280.782 337.13C266.802 337.13 256.473 332.644 249.795 323.671C243.327 314.698 240.092 303.326 240.092 289.554C240.092 280.373 241.762 272.339 245.1 265.453C248.648 258.358 254.386 252.829 262.315 248.864C270.245 244.899 281.095 242.917 294.867 242.917C300.293 242.917 305.927 243.334 311.769 244.169C317.612 244.795 323.455 245.63 329.297 246.673V228.206C329.297 219.442 326.898 213.495 322.098 210.365C317.299 207.026 310.83 205.357 302.692 205.357C296.432 205.357 289.546 206.192 282.034 207.861C274.731 209.53 266.802 212.139 258.246 215.686L247.917 185.012C268.993 176.457 288.086 172.179 305.196 172.179C320.638 172.179 332.532 174.787 340.878 180.004C349.434 185.221 355.381 192.107 358.719 200.662C362.058 209.217 363.727 218.399 363.727 228.206V289.241C363.727 292.371 364.562 295.397 366.231 298.318C368.109 301.031 371.657 302.387 376.873 302.387H380.316V335.565H373.117ZM274.835 288.928C274.835 294.562 276.087 299.048 278.591 302.387C281.095 305.517 284.747 307.082 289.546 307.082C294.346 307.082 299.771 305.83 305.822 303.326C311.874 300.822 319.699 294.979 329.297 285.798V272.339C318.447 270.461 307.805 269.522 297.371 269.522C289.233 269.522 283.391 271.191 279.843 274.53C276.505 277.869 274.835 282.668 274.835 288.928Z" fill="#0165E1"/>
</g>
<defs>
<clipPath id="clip0_1_2">
<rect width="455" height="455" fill="white"/>
</clipPath>
</defs>
</svg>
